# xmcd
#
# Track frame offsets:
#	150
#	14545
#	26048
#	37350
#	51200
#	64368
#	73476
#	87038
#	109949
#	124043
#	137578
#	149722
#
# Disc length: 2208 seconds
# Revision: 0
# Processed by: cddbd v1.5.2PL0 Copyright (c) Steve Scherf et al.
# Submitted via: dBpowerAMP V12.0
#
DISCID=c0089e0c
DTITLE=Eve and the Exiles - You Know She Did
DYEAR=2015
DGENRE=Pop/Rock
TTITLE0=One Glass
TTITLE1=Follow The Thread
TTITLE2=You Know She Did
TTITLE3=Mr. Devil Pt. 1
TTITLE4=Footnote
TTITLE5=Fool
TTITLE6=Don't Turn Your Back On Me
TTITLE7=Rock, Paper, Scissors
TTITLE8=Easy To Be Sorry
TTITLE9=I Received A Letter
TTITLE10=I'm Leaving
TTITLE11=Mr. Devil Pt. 2
EXTD=
EXTT0=
EXTT1=
EXTT2=
EXTT3=
EXTT4=
EXTT5=
EXTT6=
EXTT7=
EXTT8=
EXTT9=
EXTT10=
EXTT11=
PLAYORDER=
